<svg xmlns="http://www.w3.org/2000/svg" viewBox="0 0 1280 360" role="img" aria-label="BRMSTE Luxury Open Software">
  <defs>
    <linearGradient id="sky" x1="0" y1="0" x2="0" y2="1">
      <stop offset="0%" stop-color="#0c1829"/>
      <stop offset="55%" stop-color="#081120"/>
      <stop offset="100%" stop-color="#050c17"/>
    </linearGradient>
    <radialGradient id="glow" cx="50%" cy="20%" r="62%">
      <stop offset="0%" stop-color="#d4af37" stop-opacity="0.22"/>
      <stop offset="60%" stop-color="#d4af37" stop-opacity="0.04"/>
      <stop offset="100%" stop-color="#d4af37" stop-opacity="0"/>
    </radialGradient>
    <linearGradient id="gold" x1="0" y1="0" x2="1" y2="0">
      <stop offset="0%" stop-color="#b8860b"/>
      <stop offset="35%" stop-color="#d4af37"/>
      <stop offset="65%" stop-color="#f5e6b8"/>
      <stop offset="100%" stop-color="#cda942"/>
    </linearGradient>
    <linearGradient id="hex" x1="0" y1="0" x2="1" y2="1">
      <stop offset="0%" stop-color="#d4af37"/>
      <stop offset="100%" stop-color="#10b981"/>
    </linearGradient>
  </defs>

  <rect width="1280" height="360" fill="url(#sky)"/>
  <rect width="1280" height="360" fill="url(#glow)"/>

  <rect x="18" y="18" width="1244" height="324" rx="18" fill="none" stroke="url(#gold)" stroke-width="2" opacity="0.9"/>
  <rect x="30" y="30" width="1220" height="300" rx="12" fill="none" stroke="#d4af37" stroke-width="1" opacity="0.32"/>

  <g transform="translate(152 180)">
    <path d="M0 -88 L76 -44 V44 L0 88 L-76 44 V-44 Z" fill="none" stroke="url(#hex)" stroke-width="4"/>
    <path fill="url(#gold)" d="M-44 44 V-44 h22 l22 38 22 -38 h22 V44 h-26 V-12 l-18 30 -18 -30 V44 z"/>
    <circle cx="76" cy="-44" r="9" fill="#10b981"/>
  </g>

  <text x="304" y="158" font-family="Georgia, 'Times New Roman', serif" font-size="120" letter-spacing="14" fill="url(#gold)">BRMSTE</text>
  <text x="310" y="218" font-family="Georgia, serif" font-size="33" letter-spacing="18" fill="#f7f1df">LUXURY &#183; OPEN SOFTWARE</text>
  <rect x="310" y="240" width="612" height="2" fill="url(#gold)" opacity="0.7"/>
  <circle cx="300" cy="276" r="5" fill="#10b981"/>
  <text x="314" y="282" font-family="Georgia, serif" font-size="19" letter-spacing="2" fill="#9fb0c3">BRMSTE LTD &#183; Companies House 15310393 &#183; GB2607860 &#183; PCT/GB2026/050406</text>
</svg>
