<?xml version='1.0' encoding='utf-8'?>
<svg xmlns="http://www.w3.org/2000/svg" viewBox="0 0 1584 396">
<rect width="1584" height="396" fill="#0a0a0a"/>
<line x1="0" y1="394" x2="1584" y2="394" stroke="#c9a94e" stroke-width="1.5" opacity="0.2"/>
<g transform="translate(100,210)">
<g transform="translate(0.0,0.0) scale(0.086000,-0.086000)"><path d="M428 0C555 0 622 80 622 180C622 264 565 333 494 344C557 357 609 413 609 497C609 586 544 667 417 667H66V0ZM386 400H208V545H386C434 545 464 514 464 472C464 430 434 400 386 400ZM391 123H208V278H391C447 278 477 242 477 200C477 152 445 123 391 123Z" fill="#c9a94e"/></g>
<g transform="translate(67.0,0.0) scale(0.086000,-0.086000)"><path d="M606 0 456 254C528 271 602 334 602 452C602 576 517 667 378 667H66V0H208V237H312L443 0ZM357 362H208V542H357C414 542 457 508 457 452C457 396 414 362 357 362Z" fill="#c9a94e"/></g>
<g transform="translate(132.3,0.0) scale(0.086000,-0.086000)"><path d="M789 0V667H589L427 264L265 667H66V0H208V467L396 0H458L646 467V0Z" fill="#c9a94e"/></g>
<g transform="translate(215.8,0.0) scale(0.086000,-0.086000)"><path d="M303 -12C483 -12 570 80 570 202C570 451 187 380 187 486C187 526 221 553 282 553C350 553 422 530 476 480L555 584C489 645 401 677 295 677C138 677 42 585 42 474C42 223 426 304 426 186C426 148 388 112 310 112C218 112 145 153 98 202L21 94C83 31 175 -12 303 -12Z" fill="#c9a94e"/></g>
<g transform="translate(277.4,0.0) scale(0.086000,-0.086000)"><path d="M363 0V542H557V667H25V542H220V0Z" fill="#c9a94e"/></g>
<g transform="translate(337.5,0.0) scale(0.086000,-0.086000)"><path d="M538 0V125H208V276H531V401H208V542H538V667H66V0Z" fill="#c9a94e"/></g>
<g transform="translate(401.6,-51.6) scale(0.018920,-0.018920)"><path d="M419 447V667H376L312 507L248 667H205V447H233V629L308 447H316L391 629V447ZM169 641V667H17V641H79V447H107V641Z" fill="#8c7632" opacity="0.5"/></g>
</g>
<line x1="100" y1="235" x2="498" y2="235" stroke="#8c7632" stroke-width="0.5" opacity="0.25"/>
<text x="100" y="270" font-family="Proxima Nova,Helvetica Neue,Arial,sans-serif" font-size="13" font-weight="300" fill="#777" letter-spacing="5px">BUSINESS INTELLIGENCE</text>
<text x="100" y="300" font-family="Proxima Nova,Helvetica Neue,Arial,sans-serif" font-size="10" font-weight="300" fill="#444" letter-spacing="2px">Patent-Pending Reasoning Architecture  ·  brmste.ai</text>
<line x1="880" y1="100" x2="880" y2="320" stroke="#8c7632" stroke-width="0.3" opacity="0.12"/>
<text x="950" y="175" font-family="Proxima Nova,Helvetica Neue,Arial,sans-serif" font-size="40" font-weight="200" fill="#c9a94e">22×</text>
<text x="950" y="198" font-family="Proxima Nova,Helvetica Neue,Arial,sans-serif" font-size="9" font-weight="300" fill="#555" letter-spacing="3px">ENERGY REDUCTION</text>
<text x="1180" y="175" font-family="Proxima Nova,Helvetica Neue,Arial,sans-serif" font-size="40" font-weight="200" fill="#c9a94e">34×</text>
<text x="1180" y="198" font-family="Proxima Nova,Helvetica Neue,Arial,sans-serif" font-size="9" font-weight="300" fill="#555" letter-spacing="3px">ENERGY (MINI)</text>
<text x="1380" y="175" font-family="Proxima Nova,Helvetica Neue,Arial,sans-serif" font-size="40" font-weight="200" fill="#c9a94e">5</text>
<text x="1380" y="198" font-family="Proxima Nova,Helvetica Neue,Arial,sans-serif" font-size="9" font-weight="300" fill="#555" letter-spacing="3px">PATENTS FILED</text>
<text x="950" y="270" font-family="Proxima Nova,Helvetica Neue,Arial,sans-serif" font-size="11" font-weight="300" fill="#444" letter-spacing="1px">93.4% CO₂ reduction  ·  Coded in London</text>
</svg>